<mxfile host="app.diagrams.net" agent="Mozilla/5.0 (X11; Linux x86_64) AppleWebKit/537.36 (KHTML, like Gecko) Chrome/134.0.0.0 Safari/537.36" version="27.1.6">
  <diagram name="Page-1" id="f0pg2FO9zwi2OP2gCAOi">
    <mxGraphModel dx="1665" dy="798" grid="1" gridSize="10" guides="1" tooltips="1" connect="1" arrows="1" fold="1" page="1" pageScale="1" pageWidth="850" pageHeight="1100" math="0" shadow="0">
      <root>
        <mxCell id="0" />
        <mxCell id="1" parent="0" />
        <mxCell id="3ecsKDY-iE67Iaf59QVf-1" value="Pixhawk 6X Pro" style="rounded=1;whiteSpace=wrap;html=1;" parent="1" vertex="1">
          <mxGeometry x="240" y="370" width="330" height="60" as="geometry" />
        </mxCell>
        <mxCell id="3ecsKDY-iE67Iaf59QVf-7" style="edgeStyle=orthogonalEdgeStyle;rounded=0;orthogonalLoop=1;jettySize=auto;html=1;entryX=0;entryY=0.5;entryDx=0;entryDy=0;" parent="1" source="3ecsKDY-iE67Iaf59QVf-10" target="3ecsKDY-iE67Iaf59QVf-68" edge="1">
          <mxGeometry relative="1" as="geometry">
            <mxPoint x="239.6400000000001" y="522.3600000000001" as="targetPoint" />
          </mxGeometry>
        </mxCell>
        <mxCell id="3ecsKDY-iE67Iaf59QVf-8" value="Ethernet" style="edgeLabel;html=1;align=center;verticalAlign=middle;resizable=0;points=[];" parent="3ecsKDY-iE67Iaf59QVf-7" vertex="1" connectable="0">
          <mxGeometry x="-0.1076" y="1" relative="1" as="geometry">
            <mxPoint x="-26" y="-17" as="offset" />
          </mxGeometry>
        </mxCell>
        <mxCell id="3ecsKDY-iE67Iaf59QVf-10" value="Livox Mid 360" style="rounded=1;whiteSpace=wrap;html=1;" parent="1" vertex="1">
          <mxGeometry x="10" y="440" width="120" height="60" as="geometry" />
        </mxCell>
        <mxCell id="3ecsKDY-iE67Iaf59QVf-11" style="edgeStyle=orthogonalEdgeStyle;rounded=0;orthogonalLoop=1;jettySize=auto;html=1;entryX=0.25;entryY=1;entryDx=0;entryDy=0;exitX=0.25;exitY=0;exitDx=0;exitDy=0;" parent="1" source="3ecsKDY-iE67Iaf59QVf-14" target="3ecsKDY-iE67Iaf59QVf-17" edge="1">
          <mxGeometry relative="1" as="geometry" />
        </mxCell>
        <mxCell id="3ecsKDY-iE67Iaf59QVf-12" value="Video I/O" style="edgeLabel;html=1;align=center;verticalAlign=middle;resizable=0;points=[];" parent="3ecsKDY-iE67Iaf59QVf-11" vertex="1" connectable="0">
          <mxGeometry x="0.2405" relative="1" as="geometry">
            <mxPoint y="7" as="offset" />
          </mxGeometry>
        </mxCell>
        <mxCell id="3ecsKDY-iE67Iaf59QVf-13" style="edgeStyle=orthogonalEdgeStyle;rounded=0;orthogonalLoop=1;jettySize=auto;html=1;strokeColor=none;" parent="1" source="3ecsKDY-iE67Iaf59QVf-14" edge="1">
          <mxGeometry relative="1" as="geometry">
            <mxPoint x="400" y="760" as="targetPoint" />
          </mxGeometry>
        </mxCell>
        <mxCell id="3ecsKDY-iE67Iaf59QVf-14" value="&lt;div&gt;SIYI&lt;/div&gt;&lt;div&gt;A8 Mini&lt;/div&gt;&lt;div&gt;Gimbal Camera&lt;/div&gt;" style="rounded=1;whiteSpace=wrap;html=1;" parent="1" vertex="1">
          <mxGeometry x="360" y="750" width="120" height="60" as="geometry" />
        </mxCell>
        <mxCell id="3ecsKDY-iE67Iaf59QVf-15" style="edgeStyle=orthogonalEdgeStyle;rounded=0;orthogonalLoop=1;jettySize=auto;html=1;entryX=0;entryY=0.167;entryDx=0;entryDy=0;exitX=0.5;exitY=0;exitDx=0;exitDy=0;entryPerimeter=0;" parent="1" source="3ecsKDY-iE67Iaf59QVf-17" target="3ecsKDY-iE67Iaf59QVf-1" edge="1">
          <mxGeometry relative="1" as="geometry">
            <mxPoint x="550" y="570" as="targetPoint" />
            <mxPoint x="550" y="620" as="sourcePoint" />
          </mxGeometry>
        </mxCell>
        <mxCell id="3ecsKDY-iE67Iaf59QVf-16" value="&lt;div&gt;SBUS&lt;/div&gt;" style="edgeLabel;html=1;align=center;verticalAlign=middle;resizable=0;points=[];" parent="3ecsKDY-iE67Iaf59QVf-15" vertex="1" connectable="0">
          <mxGeometry x="-0.0247" y="2" relative="1" as="geometry">
            <mxPoint x="-81" y="-142" as="offset" />
          </mxGeometry>
        </mxCell>
        <mxCell id="3ecsKDY-iE67Iaf59QVf-17" value="&lt;div&gt;SIYI&lt;/div&gt;&lt;div&gt;Air Unit&lt;/div&gt;" style="rounded=1;whiteSpace=wrap;html=1;" parent="1" vertex="1">
          <mxGeometry x="360" y="630" width="120" height="60" as="geometry" />
        </mxCell>
        <mxCell id="3ecsKDY-iE67Iaf59QVf-18" value="" style="endArrow=classic;html=1;rounded=0;entryX=0;entryY=0.5;entryDx=0;entryDy=0;" parent="1" target="3ecsKDY-iE67Iaf59QVf-14" edge="1">
          <mxGeometry width="50" height="50" relative="1" as="geometry">
            <mxPoint x="300" y="780" as="sourcePoint" />
            <mxPoint x="400" y="730" as="targetPoint" />
          </mxGeometry>
        </mxCell>
        <mxCell id="3ecsKDY-iE67Iaf59QVf-19" value="Control Input&lt;div&gt;Telem&lt;/div&gt;&lt;div&gt;(To figure out)&lt;/div&gt;" style="edgeLabel;html=1;align=center;verticalAlign=middle;resizable=0;points=[];" parent="3ecsKDY-iE67Iaf59QVf-18" vertex="1" connectable="0">
          <mxGeometry x="-0.5597" y="1" relative="1" as="geometry">
            <mxPoint x="-39" as="offset" />
          </mxGeometry>
        </mxCell>
        <mxCell id="3ecsKDY-iE67Iaf59QVf-20" value="" style="endArrow=classic;html=1;rounded=0;entryX=0.75;entryY=0;entryDx=0;entryDy=0;exitX=0.75;exitY=1;exitDx=0;exitDy=0;" parent="1" source="3ecsKDY-iE67Iaf59QVf-17" target="3ecsKDY-iE67Iaf59QVf-14" edge="1">
          <mxGeometry width="50" height="50" relative="1" as="geometry">
            <mxPoint x="280" y="660" as="sourcePoint" />
            <mxPoint x="350" y="620" as="targetPoint" />
            <Array as="points" />
          </mxGeometry>
        </mxCell>
        <mxCell id="3ecsKDY-iE67Iaf59QVf-21" value="Power" style="edgeLabel;html=1;align=center;verticalAlign=middle;resizable=0;points=[];" parent="3ecsKDY-iE67Iaf59QVf-20" vertex="1" connectable="0">
          <mxGeometry x="-0.4103" relative="1" as="geometry">
            <mxPoint y="12" as="offset" />
          </mxGeometry>
        </mxCell>
        <mxCell id="3ecsKDY-iE67Iaf59QVf-22" value="" style="endArrow=classic;html=1;rounded=0;entryX=0;entryY=0.667;entryDx=0;entryDy=0;exitX=0;exitY=0.5;exitDx=0;exitDy=0;edgeStyle=orthogonalEdgeStyle;entryPerimeter=0;" parent="1" source="3ecsKDY-iE67Iaf59QVf-17" target="3ecsKDY-iE67Iaf59QVf-1" edge="1">
          <mxGeometry width="50" height="50" relative="1" as="geometry">
            <mxPoint x="400" y="610" as="sourcePoint" />
            <mxPoint x="300" y="570" as="targetPoint" />
          </mxGeometry>
        </mxCell>
        <mxCell id="3ecsKDY-iE67Iaf59QVf-23" value="&lt;div&gt;UART&lt;/div&gt;" style="edgeLabel;html=1;align=center;verticalAlign=middle;resizable=0;points=[];" parent="3ecsKDY-iE67Iaf59QVf-22" vertex="1" connectable="0">
          <mxGeometry x="0.009" y="-1" relative="1" as="geometry">
            <mxPoint x="-11" y="-163" as="offset" />
          </mxGeometry>
        </mxCell>
        <mxCell id="3ecsKDY-iE67Iaf59QVf-24" value="UART" style="edgeLabel;html=1;align=center;verticalAlign=middle;resizable=0;points=[];" parent="3ecsKDY-iE67Iaf59QVf-22" vertex="1" connectable="0">
          <mxGeometry x="-0.8247" y="1" relative="1" as="geometry">
            <mxPoint as="offset" />
          </mxGeometry>
        </mxCell>
        <mxCell id="3ecsKDY-iE67Iaf59QVf-28" value="&lt;span style=&quot;font-size: 11px; background-color: rgb(255, 255, 255);&quot;&gt;SBUS&lt;/span&gt;" style="text;html=1;align=center;verticalAlign=middle;resizable=0;points=[];autosize=1;strokeColor=none;fillColor=none;" parent="1" vertex="1">
          <mxGeometry x="395" y="600" width="50" height="30" as="geometry" />
        </mxCell>
        <mxCell id="3ecsKDY-iE67Iaf59QVf-32" style="edgeStyle=orthogonalEdgeStyle;rounded=0;orthogonalLoop=1;jettySize=auto;html=1;" parent="1" source="3ecsKDY-iE67Iaf59QVf-33" target="3ecsKDY-iE67Iaf59QVf-37" edge="1">
          <mxGeometry relative="1" as="geometry" />
        </mxCell>
        <mxCell id="3ecsKDY-iE67Iaf59QVf-33" value="6S LiPo&lt;div&gt;Battery&lt;/div&gt;" style="rounded=1;whiteSpace=wrap;html=1;" parent="1" vertex="1">
          <mxGeometry x="10" y="170" width="120" height="60" as="geometry" />
        </mxCell>
        <mxCell id="3ecsKDY-iE67Iaf59QVf-34" value="" style="edgeStyle=orthogonalEdgeStyle;rounded=0;orthogonalLoop=1;jettySize=auto;html=1;" parent="1" source="3ecsKDY-iE67Iaf59QVf-37" target="3ecsKDY-iE67Iaf59QVf-47" edge="1">
          <mxGeometry relative="1" as="geometry" />
        </mxCell>
        <mxCell id="3ecsKDY-iE67Iaf59QVf-35" value="" style="edgeStyle=orthogonalEdgeStyle;rounded=0;orthogonalLoop=1;jettySize=auto;html=1;" parent="1" source="3ecsKDY-iE67Iaf59QVf-37" target="3ecsKDY-iE67Iaf59QVf-47" edge="1">
          <mxGeometry relative="1" as="geometry" />
        </mxCell>
        <mxCell id="3ecsKDY-iE67Iaf59QVf-36" value="22.2V" style="edgeLabel;html=1;align=center;verticalAlign=middle;resizable=0;points=[];" parent="3ecsKDY-iE67Iaf59QVf-35" vertex="1" connectable="0">
          <mxGeometry x="0.0606" y="3" relative="1" as="geometry">
            <mxPoint as="offset" />
          </mxGeometry>
        </mxCell>
        <mxCell id="3ecsKDY-iE67Iaf59QVf-37" value="PMO2D&lt;div&gt;Power Module&lt;/div&gt;" style="rounded=1;whiteSpace=wrap;html=1;" parent="1" vertex="1">
          <mxGeometry x="190" y="170" width="120" height="60" as="geometry" />
        </mxCell>
        <mxCell id="3ecsKDY-iE67Iaf59QVf-38" style="edgeStyle=orthogonalEdgeStyle;rounded=0;orthogonalLoop=1;jettySize=auto;html=1;entryX=0.5;entryY=1;entryDx=0;entryDy=0;" parent="1" source="3ecsKDY-iE67Iaf59QVf-47" target="3ecsKDY-iE67Iaf59QVf-50" edge="1">
          <mxGeometry relative="1" as="geometry" />
        </mxCell>
        <mxCell id="3ecsKDY-iE67Iaf59QVf-39" value="22.2V&lt;div&gt;XT30 Power Cable&lt;/div&gt;" style="edgeLabel;html=1;align=center;verticalAlign=middle;resizable=0;points=[];" parent="3ecsKDY-iE67Iaf59QVf-38" vertex="1" connectable="0">
          <mxGeometry x="0.392" y="1" relative="1" as="geometry">
            <mxPoint x="1" y="16" as="offset" />
          </mxGeometry>
        </mxCell>
        <mxCell id="3ecsKDY-iE67Iaf59QVf-40" style="edgeStyle=orthogonalEdgeStyle;rounded=0;orthogonalLoop=1;jettySize=auto;html=1;entryX=0.5;entryY=0;entryDx=0;entryDy=0;" parent="1" target="3ecsKDY-iE67Iaf59QVf-10" edge="1">
          <mxGeometry relative="1" as="geometry">
            <mxPoint x="440" y="230" as="sourcePoint" />
            <Array as="points">
              <mxPoint x="440" y="300" />
              <mxPoint x="70" y="300" />
            </Array>
          </mxGeometry>
        </mxCell>
        <mxCell id="3ecsKDY-iE67Iaf59QVf-41" value="XT30&lt;div&gt;Female&lt;/div&gt;" style="edgeLabel;html=1;align=center;verticalAlign=middle;resizable=0;points=[];" parent="3ecsKDY-iE67Iaf59QVf-40" vertex="1" connectable="0">
          <mxGeometry x="-0.9621" y="2" relative="1" as="geometry">
            <mxPoint x="-4" y="9" as="offset" />
          </mxGeometry>
        </mxCell>
        <mxCell id="3ecsKDY-iE67Iaf59QVf-42" value="XT30 Male" style="edgeLabel;html=1;align=center;verticalAlign=middle;resizable=0;points=[];" parent="3ecsKDY-iE67Iaf59QVf-40" vertex="1" connectable="0">
          <mxGeometry x="0.8103" y="2" relative="1" as="geometry">
            <mxPoint y="-25" as="offset" />
          </mxGeometry>
        </mxCell>
        <mxCell id="3ecsKDY-iE67Iaf59QVf-43" value="Power" style="edgeLabel;html=1;align=center;verticalAlign=middle;resizable=0;points=[];" parent="3ecsKDY-iE67Iaf59QVf-40" vertex="1" connectable="0">
          <mxGeometry x="0.9483" relative="1" as="geometry">
            <mxPoint as="offset" />
          </mxGeometry>
        </mxCell>
        <mxCell id="3ecsKDY-iE67Iaf59QVf-44" style="edgeStyle=orthogonalEdgeStyle;rounded=0;orthogonalLoop=1;jettySize=auto;html=1;entryX=0;entryY=0.5;entryDx=0;entryDy=0;" parent="1" source="3ecsKDY-iE67Iaf59QVf-47" target="3ecsKDY-iE67Iaf59QVf-64" edge="1">
          <mxGeometry relative="1" as="geometry">
            <mxPoint x="720" y="450" as="targetPoint" />
          </mxGeometry>
        </mxCell>
        <mxCell id="3ecsKDY-iE67Iaf59QVf-45" value="XT30&lt;div&gt;Female&lt;/div&gt;" style="edgeLabel;html=1;align=center;verticalAlign=middle;resizable=0;points=[];" parent="3ecsKDY-iE67Iaf59QVf-44" vertex="1" connectable="0">
          <mxGeometry x="-0.8852" y="2" relative="1" as="geometry">
            <mxPoint x="22" y="2" as="offset" />
          </mxGeometry>
        </mxCell>
        <mxCell id="3ecsKDY-iE67Iaf59QVf-46" value="XT30&lt;div&gt;Male&lt;/div&gt;" style="edgeLabel;html=1;align=center;verticalAlign=middle;resizable=0;points=[];" parent="3ecsKDY-iE67Iaf59QVf-44" vertex="1" connectable="0">
          <mxGeometry x="0.7544" y="-1" relative="1" as="geometry">
            <mxPoint x="-13" as="offset" />
          </mxGeometry>
        </mxCell>
        <mxCell id="3ecsKDY-iE67Iaf59QVf-47" value="Holybro&lt;div&gt;PDB&lt;/div&gt;" style="rounded=1;whiteSpace=wrap;html=1;" parent="1" vertex="1">
          <mxGeometry x="380" y="170" width="120" height="60" as="geometry" />
        </mxCell>
        <mxCell id="3ecsKDY-iE67Iaf59QVf-48" style="edgeStyle=orthogonalEdgeStyle;rounded=0;orthogonalLoop=1;jettySize=auto;html=1;entryX=0.5;entryY=1;entryDx=0;entryDy=0;" parent="1" source="3ecsKDY-iE67Iaf59QVf-50" target="3ecsKDY-iE67Iaf59QVf-52" edge="1">
          <mxGeometry relative="1" as="geometry">
            <Array as="points">
              <mxPoint x="430" y="50" />
              <mxPoint x="420" y="50" />
            </Array>
          </mxGeometry>
        </mxCell>
        <mxCell id="3ecsKDY-iE67Iaf59QVf-49" style="edgeStyle=orthogonalEdgeStyle;rounded=0;orthogonalLoop=1;jettySize=auto;html=1;entryX=0.5;entryY=1;entryDx=0;entryDy=0;" parent="1" source="3ecsKDY-iE67Iaf59QVf-50" target="3ecsKDY-iE67Iaf59QVf-51" edge="1">
          <mxGeometry relative="1" as="geometry">
            <Array as="points">
              <mxPoint x="380" y="70" />
            </Array>
          </mxGeometry>
        </mxCell>
        <mxCell id="3ecsKDY-iE67Iaf59QVf-50" value="4in1 ESC" style="rounded=1;whiteSpace=wrap;html=1;" parent="1" vertex="1">
          <mxGeometry x="405" y="70" width="70" height="20" as="geometry" />
        </mxCell>
        <mxCell id="3ecsKDY-iE67Iaf59QVf-51" value="M1" style="rounded=1;whiteSpace=wrap;html=1;" parent="1" vertex="1">
          <mxGeometry x="362.5" y="10" width="35" height="20" as="geometry" />
        </mxCell>
        <mxCell id="3ecsKDY-iE67Iaf59QVf-52" value="M2" style="rounded=1;whiteSpace=wrap;html=1;" parent="1" vertex="1">
          <mxGeometry x="402.5" y="10" width="35" height="20" as="geometry" />
        </mxCell>
        <mxCell id="3ecsKDY-iE67Iaf59QVf-53" value="M3" style="rounded=1;whiteSpace=wrap;html=1;" parent="1" vertex="1">
          <mxGeometry x="442.5" y="10" width="35" height="20" as="geometry" />
        </mxCell>
        <mxCell id="3ecsKDY-iE67Iaf59QVf-54" value="M4" style="rounded=1;whiteSpace=wrap;html=1;" parent="1" vertex="1">
          <mxGeometry x="482.5" y="10" width="35" height="20" as="geometry" />
        </mxCell>
        <mxCell id="3ecsKDY-iE67Iaf59QVf-55" style="edgeStyle=orthogonalEdgeStyle;rounded=0;orthogonalLoop=1;jettySize=auto;html=1;entryX=0.549;entryY=0.993;entryDx=0;entryDy=0;entryPerimeter=0;exitX=0.5;exitY=0;exitDx=0;exitDy=0;" parent="1" source="3ecsKDY-iE67Iaf59QVf-50" target="3ecsKDY-iE67Iaf59QVf-53" edge="1">
          <mxGeometry relative="1" as="geometry">
            <Array as="points">
              <mxPoint x="450" y="70" />
              <mxPoint x="450" y="50" />
              <mxPoint x="462" y="50" />
            </Array>
          </mxGeometry>
        </mxCell>
        <mxCell id="3ecsKDY-iE67Iaf59QVf-56" style="edgeStyle=orthogonalEdgeStyle;rounded=0;orthogonalLoop=1;jettySize=auto;html=1;entryX=0.501;entryY=1.082;entryDx=0;entryDy=0;entryPerimeter=0;" parent="1" source="3ecsKDY-iE67Iaf59QVf-50" target="3ecsKDY-iE67Iaf59QVf-54" edge="1">
          <mxGeometry relative="1" as="geometry">
            <Array as="points">
              <mxPoint x="500" y="70" />
            </Array>
          </mxGeometry>
        </mxCell>
        <mxCell id="3ecsKDY-iE67Iaf59QVf-57" style="edgeStyle=orthogonalEdgeStyle;rounded=0;orthogonalLoop=1;jettySize=auto;html=1;entryX=0.971;entryY=0.015;entryDx=0;entryDy=0;entryPerimeter=0;" parent="1" source="3ecsKDY-iE67Iaf59QVf-50" target="3ecsKDY-iE67Iaf59QVf-1" edge="1">
          <mxGeometry relative="1" as="geometry">
            <Array as="points">
              <mxPoint x="560" y="80" />
              <mxPoint x="560" y="331" />
            </Array>
          </mxGeometry>
        </mxCell>
        <mxCell id="3ecsKDY-iE67Iaf59QVf-58" value="PWM&lt;div&gt;8to10 Pins&lt;/div&gt;" style="edgeLabel;html=1;align=center;verticalAlign=middle;resizable=0;points=[];" parent="3ecsKDY-iE67Iaf59QVf-57" vertex="1" connectable="0">
          <mxGeometry x="-0.3072" y="1" relative="1" as="geometry">
            <mxPoint as="offset" />
          </mxGeometry>
        </mxCell>
        <mxCell id="3ecsKDY-iE67Iaf59QVf-59" style="edgeStyle=orthogonalEdgeStyle;rounded=0;orthogonalLoop=1;jettySize=auto;html=1;entryX=0.03;entryY=-0.017;entryDx=0;entryDy=0;entryPerimeter=0;" parent="1" source="3ecsKDY-iE67Iaf59QVf-37" target="3ecsKDY-iE67Iaf59QVf-1" edge="1">
          <mxGeometry relative="1" as="geometry" />
        </mxCell>
        <mxCell id="3ecsKDY-iE67Iaf59QVf-60" value="5.2V" style="edgeLabel;html=1;align=center;verticalAlign=middle;resizable=0;points=[];" parent="3ecsKDY-iE67Iaf59QVf-59" vertex="1" connectable="0">
          <mxGeometry x="-0.3541" relative="1" as="geometry">
            <mxPoint as="offset" />
          </mxGeometry>
        </mxCell>
        <mxCell id="3ecsKDY-iE67Iaf59QVf-61" style="edgeStyle=orthogonalEdgeStyle;rounded=0;orthogonalLoop=1;jettySize=auto;html=1;entryX=0.5;entryY=0;entryDx=0;entryDy=0;" parent="1" source="3ecsKDY-iE67Iaf59QVf-64" target="3ecsKDY-iE67Iaf59QVf-67" edge="1">
          <mxGeometry relative="1" as="geometry" />
        </mxCell>
        <mxCell id="3ecsKDY-iE67Iaf59QVf-62" value="XT60&amp;nbsp;&lt;span style=&quot;background-color: light-dark(#ffffff, var(--ge-dark-color, #121212)); color: light-dark(rgb(0, 0, 0), rgb(255, 255, 255));&quot;&gt;Female&lt;/span&gt;" style="edgeLabel;html=1;align=center;verticalAlign=middle;resizable=0;points=[];" parent="3ecsKDY-iE67Iaf59QVf-61" vertex="1" connectable="0">
          <mxGeometry x="-0.7565" y="1" relative="1" as="geometry">
            <mxPoint x="-1" y="11" as="offset" />
          </mxGeometry>
        </mxCell>
        <mxCell id="3ecsKDY-iE67Iaf59QVf-63" value="XT60&amp;nbsp;&lt;span style=&quot;background-color: light-dark(#ffffff, var(--ge-dark-color, #121212)); color: light-dark(rgb(0, 0, 0), rgb(255, 255, 255));&quot;&gt;Male&lt;/span&gt;" style="edgeLabel;html=1;align=center;verticalAlign=middle;resizable=0;points=[];" parent="3ecsKDY-iE67Iaf59QVf-61" vertex="1" connectable="0">
          <mxGeometry x="0.5228" y="-1" relative="1" as="geometry">
            <mxPoint as="offset" />
          </mxGeometry>
        </mxCell>
        <mxCell id="3ecsKDY-iE67Iaf59QVf-64" value="&lt;div&gt;XT&lt;/div&gt;&lt;div&gt;Converter&lt;/div&gt;" style="rounded=1;whiteSpace=wrap;html=1;" parent="1" vertex="1">
          <mxGeometry x="640" y="170" width="120" height="60" as="geometry" />
        </mxCell>
        <mxCell id="3ecsKDY-iE67Iaf59QVf-65" style="edgeStyle=orthogonalEdgeStyle;rounded=0;orthogonalLoop=1;jettySize=auto;html=1;entryX=1;entryY=0.5;entryDx=0;entryDy=0;exitX=0.5;exitY=1;exitDx=0;exitDy=0;" parent="1" source="3ecsKDY-iE67Iaf59QVf-74" target="3ecsKDY-iE67Iaf59QVf-17" edge="1">
          <mxGeometry relative="1" as="geometry">
            <mxPoint x="680" y="660" as="sourcePoint" />
          </mxGeometry>
        </mxCell>
        <mxCell id="3ecsKDY-iE67Iaf59QVf-66" value="&lt;span style=&quot;color: rgb(0, 0, 0); background-color: rgb(255, 255, 255); float: none; display: inline !important;&quot;&gt;Power&lt;/span&gt;&lt;div style=&quot;color: rgb(0, 0, 0); background-color: rgb(251, 251, 251);&quot;&gt;12V BEC&lt;/div&gt;" style="edgeLabel;html=1;align=center;verticalAlign=middle;resizable=0;points=[];" parent="3ecsKDY-iE67Iaf59QVf-65" vertex="1" connectable="0">
          <mxGeometry x="-0.0836" relative="1" as="geometry">
            <mxPoint x="-156" as="offset" />
          </mxGeometry>
        </mxCell>
        <mxCell id="3ecsKDY-iE67Iaf59QVf-79" value="&amp;nbsp;" style="edgeLabel;html=1;align=center;verticalAlign=middle;resizable=0;points=[];" parent="3ecsKDY-iE67Iaf59QVf-65" vertex="1" connectable="0">
          <mxGeometry x="-0.9018" relative="1" as="geometry">
            <mxPoint as="offset" />
          </mxGeometry>
        </mxCell>
        <mxCell id="3ecsKDY-iE67Iaf59QVf-80" value="XT30&amp;nbsp;&lt;span style=&quot;background-color: light-dark(#ffffff, var(--ge-dark-color, #121212)); color: light-dark(rgb(0, 0, 0), rgb(255, 255, 255));&quot;&gt;Female&lt;/span&gt;" style="edgeLabel;html=1;align=center;verticalAlign=middle;resizable=0;points=[];" parent="3ecsKDY-iE67Iaf59QVf-65" vertex="1" connectable="0">
          <mxGeometry x="-0.8711" y="-2" relative="1" as="geometry">
            <mxPoint as="offset" />
          </mxGeometry>
        </mxCell>
        <mxCell id="3ecsKDY-iE67Iaf59QVf-75" style="edgeStyle=orthogonalEdgeStyle;rounded=0;orthogonalLoop=1;jettySize=auto;html=1;entryX=0.5;entryY=0;entryDx=0;entryDy=0;" parent="1" source="3ecsKDY-iE67Iaf59QVf-67" target="3ecsKDY-iE67Iaf59QVf-74" edge="1">
          <mxGeometry relative="1" as="geometry" />
        </mxCell>
        <mxCell id="3ecsKDY-iE67Iaf59QVf-76" value="XT30&amp;nbsp;&lt;span style=&quot;background-color: light-dark(#ffffff, var(--ge-dark-color, #121212)); color: light-dark(rgb(0, 0, 0), rgb(255, 255, 255));&quot;&gt;Female&lt;/span&gt;" style="edgeLabel;html=1;align=center;verticalAlign=middle;resizable=0;points=[];" parent="3ecsKDY-iE67Iaf59QVf-75" vertex="1" connectable="0">
          <mxGeometry x="-0.4889" relative="1" as="geometry">
            <mxPoint as="offset" />
          </mxGeometry>
        </mxCell>
        <mxCell id="3ecsKDY-iE67Iaf59QVf-82" value="XT30&amp;nbsp;&lt;span style=&quot;background-color: light-dark(#ffffff, var(--ge-dark-color, #121212)); color: light-dark(rgb(0, 0, 0), rgb(255, 255, 255));&quot;&gt;Male&lt;/span&gt;" style="edgeLabel;html=1;align=center;verticalAlign=middle;resizable=0;points=[];" parent="3ecsKDY-iE67Iaf59QVf-75" vertex="1" connectable="0">
          <mxGeometry x="0.5987" relative="1" as="geometry">
            <mxPoint as="offset" />
          </mxGeometry>
        </mxCell>
        <mxCell id="3ecsKDY-iE67Iaf59QVf-67" value="&lt;div&gt;SIYI BEC&lt;/div&gt;" style="rounded=1;whiteSpace=wrap;html=1;" parent="1" vertex="1">
          <mxGeometry x="640" y="310" width="120" height="60" as="geometry" />
        </mxCell>
        <mxCell id="3ecsKDY-iE67Iaf59QVf-68" value="NVIDIA Orin" style="rounded=1;whiteSpace=wrap;html=1;" parent="1" vertex="1">
          <mxGeometry x="240" y="440" width="330" height="60" as="geometry" />
        </mxCell>
        <mxCell id="3ecsKDY-iE67Iaf59QVf-77" style="edgeStyle=orthogonalEdgeStyle;rounded=0;orthogonalLoop=1;jettySize=auto;html=1;entryX=1;entryY=0.5;entryDx=0;entryDy=0;" parent="1" source="3ecsKDY-iE67Iaf59QVf-74" target="3ecsKDY-iE67Iaf59QVf-68" edge="1">
          <mxGeometry relative="1" as="geometry" />
        </mxCell>
        <mxCell id="3ecsKDY-iE67Iaf59QVf-81" value="&lt;div&gt;12V BEC&lt;/div&gt;XT30&lt;div&gt;Female&lt;/div&gt;" style="edgeLabel;html=1;align=center;verticalAlign=middle;resizable=0;points=[];" parent="3ecsKDY-iE67Iaf59QVf-77" vertex="1" connectable="0">
          <mxGeometry x="-0.2381" relative="1" as="geometry">
            <mxPoint as="offset" />
          </mxGeometry>
        </mxCell>
        <mxCell id="3ecsKDY-iE67Iaf59QVf-74" value="&lt;div&gt;XT&lt;/div&gt;&lt;div&gt;Expansioin&lt;/div&gt;" style="rounded=1;whiteSpace=wrap;html=1;" parent="1" vertex="1">
          <mxGeometry x="640" y="440" width="120" height="60" as="geometry" />
        </mxCell>
      </root>
    </mxGraphModel>
  </diagram>
</mxfile>
